<?xml version="1.0" encoding="iso-8859-1"?>
<!-- Generator: Adobe Illustrator 19.0.0, SVG Export Plug-In . SVG Version: 6.00 Build 0)  -->
<svg version="1.1" id="Layer_1" xmlns="http://www.w3.org/2000/svg" xmlns:xlink="http://www.w3.org/1999/xlink" x="0px" y="0px"
	 viewBox="0 0 502 502" style="enable-background:new 0 0 502 502;" xml:space="preserve">
<g>
	<path style="fill:#7ed321;" d="M248.717,10.002C206.19,49.759,149.076,74.107,86.266,74.107c-20.662,0-40.707-2.637-59.821-7.587
		c-0.168,5.248-0.254,10.516-0.254,15.804c-0.001,172.205,89.645,323.462,224.807,409.678
		C386.16,405.785,475.806,254.528,475.806,82.325c0-5.7-0.105-11.375-0.3-17.027c-20.465,5.734-42.042,8.81-64.338,8.81
		C348.358,74.107,291.244,49.759,248.717,10.002z"/>
	<g>
		<path style="fill:#fff;" d="M359.927,162.931L226.498,296.359l-67.429-67.429c-3.905-3.905-10.237-3.905-14.143,0c-3.905,3.905-3.905,10.237,0,14.143
			l74.5,74.5c1.953,1.953,4.512,2.929,7.071,2.929s5.119-0.976,7.071-2.929l140.5-140.5c3.905-3.905,3.905-10.237,0-14.143
			C370.164,159.026,363.832,159.026,359.927,162.931z"/>
	</g>
</g>
<g>
</g>
<g>
</g>
<g>
</g>
<g>
</g>
<g>
</g>
<g>
</g>
<g>
</g>
<g>
</g>
<g>
</g>
<g>
</g>
<g>
</g>
<g>
</g>
<g>
</g>
<g>
</g>
<g>
</g>
</svg>
